<?xml version="1.0" encoding="utf-8"?>
<!-- Generator: Adobe Illustrator 22.0.1, SVG Export Plug-In . SVG Version: 6.00 Build 0)  -->
<svg version="1.1" id="Layer_1" xmlns="http://www.w3.org/2000/svg" xmlns:xlink="http://www.w3.org/1999/xlink" x="0px" y="0px"
	 viewBox="0 0 96 96" style="enable-background:new 0 0 96 96;" xml:space="preserve">
<g>
	<g>
		<g>
			<path d="M43.8,21.2C32.2,23,23.1,32.2,21.3,43.7l3.3-0.8c1-4.5,3.2-8.6,6.5-11.9s7.4-5.5,11.9-6.5L43.8,21.2z"/>
			<path d="M52.2,21.2l0.8,3.3c4.5,1,8.6,3.2,11.9,6.5c3.3,3.3,5.5,7.4,6.5,11.9l3.3,0.8C72.9,32.2,63.8,23,52.2,21.2z"/>
		</g>
		<g>
			<path d="M43,71.3c-4.5-1-8.6-3.2-11.9-6.5c-3.3-3.3-5.5-7.4-6.5-11.9l-3.3-0.8c1.8,11.6,10.9,20.7,22.5,22.5L43,71.3z"/>
			<path d="M71.4,53c-1,4.5-3.2,8.6-6.5,11.9c-3.3,3.3-7.4,5.5-11.9,6.5l-0.8,3.3c11.6-1.8,20.7-10.9,22.5-22.5L71.4,53z"/>
		</g>
	</g>
	<path d="M78.8,47.9l-22.3-5.6l6-9l-9,6L48,17.1l-5.6,22.3l-9-6l6,9l-22.3,5.6l22.3,5.6l-6,9l9-6L48,78.8l5.6-22.3l9,6l-6-9
		L78.8,47.9z M48,25.6l3.9,15.7c-1.2-0.7-2.5-1.1-3.9-1.1L48,25.6z M40.3,47.9L40.3,47.9H25.6L41.4,44
		C40.7,45.1,40.3,46.5,40.3,47.9z M48,70.3l-3.9-15.7c1.2,0.7,2.5,1.1,3.9,1.1h0L48,70.3z M48,54.1c-3.4,0-6.2-2.8-6.2-6.2
		c0-3.4,2.8-6.2,6.2-6.2c3.4,0,6.2,2.8,6.2,6.2C54.2,51.3,51.4,54.1,48,54.1z M55.7,47.9l14.6,0l-15.7,3.9
		C55.3,50.7,55.7,49.4,55.7,47.9z"/>
	<path d="M48,51c-1.7,0-3.1-1.4-3.1-3.1c0-1.7,1.4-3.1,3.1-3.1c1.7,0,3.1,1.4,3.1,3.1C51.1,49.6,49.7,51,48,51z"/>
	<g>
		<rect x="34.9" y="24.4" transform="matrix(0.866 -0.5 0.5 0.866 -8.6796 21.4923)" width="1.6" height="5"/>
		<rect x="26.1" y="33.4" transform="matrix(0.5 -0.866 0.866 0.5 -17.6097 41.242)" width="1.6" height="5"/>
		<rect x="26.2" y="57.7" transform="matrix(-0.5 -0.866 0.866 -0.5 -11.5802 113.6397)" width="1.6" height="5"/>
		<rect x="35.1" y="66.5" transform="matrix(-0.866 -0.5 0.5 -0.866 32.5633 146.7579)" width="1.6" height="5"/>
		<rect x="59.4" y="66.4" transform="matrix(-0.866 0.5 -0.5 -0.866 146.8564 98.4766)" width="1.6" height="5"/>
		<rect x="68.3" y="57.5" transform="matrix(-0.5 0.866 -0.866 -0.5 155.5806 30.1445)" width="1.6" height="5"/>
		<rect x="68.2" y="33.2" transform="matrix(0.5 0.866 -0.866 0.5 65.4043 -41.8965)" width="1.6" height="5"/>
		<rect x="59.2" y="24.3" transform="matrix(0.866 0.5 -0.5 0.866 21.4658 -26.4324)" width="1.6" height="5"/>
	</g>
</g>
<g>
	<g>
		<path d="M44.1,5.7h2.4l3.1,4.5V5.7h2.4V14h-2.4l-3.1-4.5V14h-2.4V5.7z"/>
	</g>
	<g>
		<path d="M44.3,87.4l2.4-0.2c0.1,0.4,0.2,0.7,0.3,0.9c0.3,0.3,0.6,0.5,1.1,0.5c0.4,0,0.6-0.1,0.8-0.3c0.2-0.2,0.3-0.4,0.3-0.6
			c0-0.2-0.1-0.4-0.3-0.6c-0.2-0.2-0.6-0.3-1.3-0.5c-1.1-0.3-1.9-0.6-2.4-1c-0.5-0.4-0.7-0.9-0.7-1.6c0-0.4,0.1-0.8,0.4-1.2
			c0.2-0.4,0.6-0.7,1.1-0.9c0.5-0.2,1.2-0.3,2-0.3c1.1,0,1.9,0.2,2.4,0.6c0.6,0.4,0.9,1,1,1.9l-2.4,0.1c-0.1-0.4-0.2-0.6-0.4-0.8
			c-0.2-0.2-0.5-0.3-0.8-0.3c-0.3,0-0.5,0.1-0.7,0.2c-0.1,0.1-0.2,0.3-0.2,0.5c0,0.1,0.1,0.2,0.2,0.4c0.1,0.1,0.4,0.2,0.9,0.3
			c1.1,0.2,1.9,0.5,2.4,0.7c0.5,0.2,0.8,0.5,1,0.9c0.2,0.4,0.3,0.8,0.3,1.2c0,0.5-0.1,1-0.4,1.5c-0.3,0.4-0.7,0.8-1.2,1
			c-0.5,0.2-1.2,0.3-2,0.3c-1.4,0-2.4-0.3-2.9-0.8C44.6,88.9,44.3,88.2,44.3,87.4z"/>
	</g>
</g>
<g>
	<g>
		<path d="M2.8,43.9h2.4l0.9,4.6l1.3-4.6h2.4l1.3,4.6l0.9-4.6h2.4l-1.8,8.2H10l-1.4-5.2l-1.4,5.2H4.6L2.8,43.9z"/>
	</g>
	<g>
		<path d="M82.3,43.9h6.8v1.8h-4.3V47h4v1.7h-4v1.6h4.4v1.9h-6.9V43.9z"/>
	</g>
</g>
</svg>
