<?xml version="1.0" encoding="utf-8"?>
<!-- Generator: Adobe Illustrator 20.0.0, SVG Export Plug-In . SVG Version: 6.00 Build 0)  -->
<svg version="1.1" id="Layer_1" xmlns="http://www.w3.org/2000/svg" xmlns:xlink="http://www.w3.org/1999/xlink" x="0px" y="0px"
	 viewBox="0 0 96 96" style="enable-background:new 0 0 96 96;" xml:space="preserve">
<path d="M81.6,33.9c-4-2.3-3.2-6.1-3.3-9.7c0-1.4,0-2.7,0-4.1c0-2.7-1.4-3.9-4-3.9c-10.2-0.1-20.5,0-30.7,0c-2.9,0-4.1,1.4-4.1,4.2
	c0,2.7,0,5.5,0,8.2c0,1.7-0.3,3.2-1.7,4.2c-2.5,1.8-3.1,4.3-3.1,7.2c0,7,0,14.1,0,21.1c0,2.5,0.1,5,1.4,7.3c0.8,1.4,0.7,2.9-0.6,4
	c-1.2,1.1-2.8,1.1-4.2,0.5C30,72.4,29,71.5,31,70.5c1.9-1,2.8-2.6,2.9-4.7C34,53.4,34,41,33.9,28.6c0-2.9-1.7-4.4-4.4-4.7
	c-2.9-0.3-5.9-0.4-8.8,0c-2.8,0.3-4.3,2-4.3,4.8c-0.1,12.4-0.1,24.8,0,37.2c0,1.8,0.6,3.6,2.3,4.2c2.3,0.8,3.2,2.6,4.2,4.6
	c2,4.2,5.6,6.3,10.2,6.2c4.6,0,8.4-2.1,10.1-6.3c1.3-3.1,3.1-3.9,6.2-3.8c8.6,0.1,17.3,0.1,25.9,0c3.3,0,6.4-0.6,7.6-4.4v-30
	C82.2,35.6,82.4,34.3,81.6,33.9z M48.6,61.7c-1.7,0-2.6-0.9-2.6-2.5c-0.1-1.5,0.8-2.5,2.4-2.6c1.8-0.1,2.8,0.8,2.8,2.6
	C51.2,60.7,50.2,61.6,48.6,61.7z M48.8,51.2C47,51.3,46,50.3,46,48.5c0-1.6,1-2.5,2.6-2.5c1.6,0,2.4,1,2.7,2.6
	C51.2,50.1,50.3,51.2,48.8,51.2z M59.2,61.7c-1.7,0.1-2.6-0.8-2.6-2.4c-0.1-1.6,0.7-2.6,2.4-2.6c1.6,0,2.6,0.7,2.7,2.5
	C61.7,60.6,60.9,61.6,59.2,61.7z M56.6,48.5c0-1.7,1-2.5,2.5-2.5c1.5,0,2.5,0.9,2.5,2.5c0,1.6-0.9,2.6-2.4,2.7
	C57.5,51.3,56.6,50.3,56.6,48.5z M69.7,61.7c-1.8,0-2.7-1-2.6-2.7c0.1-1.7,1.1-2.3,2.7-2.3c1.7,0,2.3,1,2.5,2.5
	C72,60.6,71.4,61.7,69.7,61.7z M69.8,51.2c-1.7,0.1-2.8-0.9-2.8-2.7c0-1.7,1-2.5,2.6-2.5c1.6,0,2.4,1,2.6,2.6
	C72.1,50,71.4,51.2,69.8,51.2z M72.3,35.8c0,1.7-0.4,2.4-2.3,2.4c-7.2-0.1-14.5-0.1-21.8,0c-1.7,0-2.5-0.3-2.4-2.2
	c0.1-3.7,0.2-7.5,0-11.2c-0.1-2.1,0.8-2.4,2.6-2.4c3.6,0.1,7.2,0,10.9,0c3.4,0,6.8,0.1,10.2,0c2-0.1,2.9,0.3,2.8,2.6
	C72.2,28.5,72.2,32.2,72.3,35.8z"/>
</svg>
