<?xml version="1.0" encoding="utf-8"?>
<!-- Generator: Adobe Illustrator 22.0.1, SVG Export Plug-In . SVG Version: 6.00 Build 0)  -->
<svg version="1.1" id="Layer_1" xmlns="http://www.w3.org/2000/svg" xmlns:xlink="http://www.w3.org/1999/xlink" x="0px" y="0px"
	 viewBox="0 0 96 96" style="enable-background:new 0 0 96 96;" xml:space="preserve">
<path d="M90.5,19.3c0-8.6-4.1-12.2-12.5-12.2C59,7.3,39.9,7.2,20.8,7.2c-8,0-12,3.7-11.9,11.8c0.1,9.7,0,19.4,0,29.1
	c0,9.4,0.1,18.8,0,28.1c-0.2,9,4.1,12.8,13,12.7c18.8-0.2,37.5-0.1,56.3,0c8.5,0,12.5-3.8,12.4-12.3C90.4,57.5,90.4,38.4,90.5,19.3z
	 M63.4,43.1c0.9,6.2,6.9,0.9,9.4,4.2c-1.2,3.5,0.5,9.3-6.9,8.6c-3.7-0.3-2.4,3.1-2.5,5c-0.2,6.1-0.2,12.3,0,18.4
	c0.1,3.7-0.3,5.8-5.1,5.8c-5.1,0-4.8-2.7-4.7-6.1c0.1-4.8,0.2-9.7,0-14.5c-0.2-3.9,2.3-8.9-5.7-9.3c-3.4-0.2-3-8.5-0.2-8.6
	c7.7-0.2,5.6-5,6.2-9C55,29.4,61.7,24.8,69,27c2.3,0.7,4.3,1.7,4,4.6c-0.2,1.7,0.9,4.5-1.9,4.6C66.4,36.4,62.4,36.9,63.4,43.1z"/>
</svg>
