<?xml version="1.0" encoding="utf-8"?>
<!-- Generator: Adobe Illustrator 22.0.1, SVG Export Plug-In . SVG Version: 6.00 Build 0)  -->
<svg version="1.1" id="Layer_1" xmlns="http://www.w3.org/2000/svg" xmlns:xlink="http://www.w3.org/1999/xlink" x="0px" y="0px"
	 viewBox="0 0 96 96" style="enable-background:new 0 0 96 96;" xml:space="preserve">
<style type="text/css">
	.st0{fill:#0A0A0B;}
	.st1{fill:#FFFFFF;}
	.st2{fill:#0B0A0B;}
</style>
<path class="st0" d="M47.9,23.3c-13.6,0-24.6,11-24.6,24.6c0,13.6,11,24.6,24.6,24.6c13.6,0,24.6-11,24.6-24.6
	C72.6,34.4,61.5,23.3,47.9,23.3z M47.9,63.9c-8.8,0-16-7.2-16-16c0-8.8,7.2-16,16-15.9c8.8,0,16,7.2,15.9,16
	C63.9,56.8,56.7,63.9,47.9,63.9z"/>
<path class="st0" d="M79.3,22.3c0,3.2-2.6,5.7-5.7,5.7c-3.2,0-5.7-2.6-5.8-5.7c0-3.2,2.5-5.7,5.7-5.8C76.7,16.6,79.3,19.2,79.3,22.3
	z"/>
<path class="st0" d="M94.2,31.3c-0.1-2.9-0.2-5.8-0.8-8.7c-0.7-3.6-2-7-4.1-10C84.8,6.3,78.6,3.3,71.2,2.3c-3.1-0.4-6.1-0.5-9.2-0.5
	C57.3,1.6,52.7,1.6,48,1.6c-5.5,0-11,0-16.5,0.2c-3,0.1-6,0.2-8.9,0.8c-3.6,0.7-7,2-10.1,4.1c-6.2,4.4-9.3,10.6-10.2,18
	c-0.4,3-0.5,5.9-0.5,8.9C1.6,44.1,1.5,54.4,1.8,64.7c0.1,2.9,0.2,5.8,0.8,8.7c0.8,3.8,2.1,7.3,4.4,10.5c4.4,5.9,10.5,8.9,17.7,9.9
	c3.2,0.4,6.4,0.5,9.6,0.6c8.6,0.1,17.2,0.1,25.8,0c4.2-0.1,8.5-0.1,12.7-0.8c4-0.7,7.7-2.1,11-4.6c5.9-4.4,8.8-10.5,9.8-17.7
	c0.4-3,0.5-6,0.5-8.9C94.4,51.9,94.5,41.6,94.2,31.3z M85.9,62.9c-0.1,2.8-0.1,5.6-0.6,8.3c-0.6,3.1-1.6,6-3.7,8.5
	c-2.6,3-5.9,4.7-9.8,5.4c-2.9,0.6-5.9,0.7-8.9,0.7c-9.9,0.2-19.7,0.2-29.6,0c-2.8-0.1-5.6-0.1-8.4-0.6c-2.8-0.5-5.4-1.4-7.7-3.1
	c-3.2-2.4-5.1-5.7-6-9.5c-0.6-2.5-0.7-5.1-0.8-7.7C10,59.2,10,53.6,10,48.3c0-5.1,0-9.9,0.1-14.7c0.1-2.8,0.1-5.5,0.5-8.3
	c0.5-3,1.4-5.9,3.3-8.4c2.4-3.2,5.6-5,9.5-5.9c2.4-0.6,4.9-0.7,7.4-0.8c10.7-0.3,21.4-0.2,32.1-0.1c2.6,0,5.2,0.1,7.7,0.5
	c4.3,0.7,8,2.3,10.9,5.7c1.7,2.1,2.8,4.5,3.4,7.1c0.6,2.5,0.8,5,0.8,7.5C86.1,41.5,86,52.2,85.9,62.9z"/>
<path class="st1" d="M47.9,23.3c-13.6,0-24.6,11-24.6,24.6c0,13.6,11,24.6,24.6,24.6c13.6,0,24.6-11,24.6-24.6
	C72.6,34.4,61.5,23.3,47.9,23.3z M47.9,63.9c-8.8,0-16-7.2-16-16c0-8.8,7.2-16,16-15.9c8.8,0,16,7.2,15.9,16
	C63.9,56.8,56.7,63.9,47.9,63.9z"/>
<path class="st1" d="M79.3,22.3c0,3.2-2.6,5.7-5.7,5.7c-3.2,0-5.7-2.6-5.8-5.7c0-3.2,2.5-5.7,5.7-5.8C76.7,16.6,79.3,19.2,79.3,22.3
	z"/>
<path class="st0" d="M47.9,23.3c-13.6,0-24.6,11-24.6,24.6c0,13.6,11,24.6,24.6,24.6c13.6,0,24.6-11,24.6-24.6
	C72.6,34.4,61.5,23.3,47.9,23.3z M47.9,63.9c-8.8,0-16-7.2-16-16c0-8.8,7.2-16,16-15.9c8.8,0,16,7.2,15.9,16
	C63.9,56.8,56.7,63.9,47.9,63.9z"/>
<path class="st2" d="M79.3,22.3c0,3.2-2.6,5.7-5.7,5.7c-3.2,0-5.7-2.6-5.8-5.7c0-3.2,2.5-5.7,5.7-5.8C76.7,16.6,79.3,19.2,79.3,22.3
	z"/>
</svg>
