<?xml version="1.0" encoding="utf-8"?>
<!-- Generator: Adobe Illustrator 22.0.1, SVG Export Plug-In . SVG Version: 6.00 Build 0)  -->
<svg version="1.1" id="Layer_1" xmlns="http://www.w3.org/2000/svg" xmlns:xlink="http://www.w3.org/1999/xlink" x="0px" y="0px"
	 viewBox="0 0 96 96" style="enable-background:new 0 0 96 96;" xml:space="preserve">
<style type="text/css">
	.st0{fill:#FEFEFE;}
	.st1{fill:#FCFCFC;}
</style>
<path d="M93.8,47.2c0,8.9,0,17.7,0,26.6c0,10.7-7.8,18.5-18.5,18.5c-17.5,0-35.1-0.1-52.6,0c-12.2,0.1-19.2-9.7-19.1-19
	C4,55.6,3.8,37.9,3.8,20.2C3.8,9.9,11.4,2.1,21.7,2C39.7,2,57.8,2,75.8,2c10.1,0,17.8,7.5,17.9,17.6C93.9,28.8,93.8,38,93.8,47.2
	C93.8,47.2,93.8,47.2,93.8,47.2z"/>
<path class="st0" d="M83.2,46.9c0,5.1,0.1,10.2,0,15.3c-0.3,10.1-9.1,18.9-19.2,19.1c-10,0.2-20.1,0.2-30.1,0
	c-10.3-0.2-19.1-8.9-19.3-19.2c-0.2-10-0.2-20.1,0-30.1c0.2-10.2,9.2-19.1,19.3-19.3c9.9-0.2,19.9-0.1,29.8,0
	c10.4,0.2,19.2,8.9,19.4,19.4C83.3,37.1,83.2,42,83.2,46.9z"/>
<path d="M78.6,47c0,4.8,0,9.5,0,14.3c-0.1,8.4-7,15.5-15.4,15.6c-9.7,0.1-19.4,0.1-29.1,0c-8.1-0.1-14.9-7-15.1-15.4
	c-0.2-9.6-0.2-19.2,0-28.8c0.2-8.5,6.9-15.2,15.4-15.3c9.6-0.2,19.2-0.2,28.8,0c8.7,0.2,15.3,7.2,15.4,15.9
	C78.7,37.8,78.6,42.4,78.6,47z"/>
<path class="st0" d="M31.4,46.9c0-9.7,7.8-17.3,17.6-17.2c9.6,0.1,17.2,7.8,17.1,17.5c0,9.7-7.8,17.3-17.6,17.2
	C38.9,64.3,31.4,56.6,31.4,46.9z"/>
<path class="st1" d="M68.5,23.7c2.4,0,4.5,2,4.5,4.4c0,2.4-2.2,4.6-4.7,4.6c-2.4,0-4.4-2-4.4-4.5C63.9,25.6,65.9,23.7,68.5,23.7z"/>
<path d="M48.9,34.2c7.1,0,12.8,5.8,12.7,12.9c0,7-5.8,12.7-12.8,12.7C41.7,59.9,36,54.1,36,47C36,39.9,41.7,34.2,48.9,34.2z"/>
</svg>
