<?xml version="1.0" encoding="utf-8"?>
<!-- Generator: Adobe Illustrator 22.0.1, SVG Export Plug-In . SVG Version: 6.00 Build 0)  -->
<svg version="1.1" id="Layer_1" xmlns="http://www.w3.org/2000/svg" xmlns:xlink="http://www.w3.org/1999/xlink" x="0px" y="0px"
	 viewBox="0 0 48 48" style="enable-background:new 0 0 48 48;" xml:space="preserve">
<style type="text/css">
	.st0{fill:#FFFFFF;}
</style>
<g>
	<path class="st0" d="M46.5,14.8c0-4.6-1.8-6.4-6.4-6.4c-10.7,0-21.4,0.1-32.2,0c-3.1,0-5.3,1.1-6.5,3.9v23.5
		c1.3,2.9,3.6,3.9,6.8,3.9c10.8-0.1,21.6,0,32.4-0.1c3.9,0,5.9-2,5.9-5.9C46.6,27.4,46.5,21.1,46.5,14.8z M7.3,11.9
		c5.5-0.1,11.1-0.1,16.7-0.1c5.2,0,10.5,0,15.7,0c1.3,0,3-0.3,3.2,1.5c0,0.7-1.2,1.8-2,2.2c-5,2.8-10,5.4-15,8.2
		c-1.3,0.7-2.4,0.7-3.7,0C17,20.8,11.8,18,6.6,15.2c-0.7-0.4-1-1.3-1.5-1.9C5.8,12.8,6.5,11.9,7.3,11.9z M43.1,22.1
		c0,3.8,0,7.5,0,11.3c0,1.9-0.8,2.8-2.8,2.8c-10.9-0.1-21.8,0-32.6,0c-1.7,0-2.8-0.5-2.8-2.3c0-6.1,0-12.2,0-18.9
		c4,3.2,7.6,5.9,11.5,9c-3.3,3-6.5,5.8-9.7,8.7C7,33,7.2,33.3,7.5,33.6c2.1-1.5,4.2-2.9,6.3-4.4c0.4-0.3,0.8-0.5,1.1-0.8
		c3.7-2.6,3.7-2.7,7.5-0.2c1.2,0.8,2,0.9,3.1,0c0.5-0.5,1.2-0.7,1.8-1.2c1.3-1.2,2.5-1.1,3.9,0c3,2.3,6.2,4.4,9.6,6.3
		c-3.1-2.8-6.2-5.7-9.7-8.8c4.3-3.4,7.9-6.2,12-9.4C43.1,15.1,43.1,22.1,43.1,22.1z"/>
	<path class="st0" d="M46.5,14.8c0-4.6-1.8-6.4-6.4-6.4c-10.7,0-21.4,0.1-32.2,0c-3.1,0-5.3,1.1-6.5,3.9v23.5
		c1.3,2.9,3.6,3.9,6.8,3.9c10.8-0.1,21.6,0,32.4-0.1c3.9,0,5.9-2,5.9-5.9C46.6,27.4,46.5,21.1,46.5,14.8z M7.3,11.9
		c5.5-0.1,11.1-0.1,16.7-0.1c5.2,0,10.5,0,15.7,0c1.3,0,3-0.3,3.2,1.5c0,0.7-1.2,1.8-2,2.2c-5,2.8-10,5.4-15,8.2
		c-1.3,0.7-2.4,0.7-3.7,0C17,20.8,11.8,18,6.6,15.2c-0.7-0.4-1-1.3-1.5-1.9C5.8,12.8,6.5,11.9,7.3,11.9z M43.1,22.1
		c0,3.8,0,7.5,0,11.3c0,1.9-0.8,2.8-2.8,2.8c-10.9-0.1-21.8,0-32.6,0c-1.7,0-2.8-0.5-2.8-2.3c0-6.1,0-12.2,0-18.9
		c4,3.2,7.6,5.9,11.5,9c-3.3,3-6.5,5.8-9.7,8.7C7,33,7.2,33.3,7.5,33.6c2.1-1.5,4.2-2.9,6.3-4.4c0.4-0.3,0.8-0.5,1.1-0.8
		c3.7-2.6,3.7-2.7,7.5-0.2c1.2,0.8,2,0.9,3.1,0c0.5-0.5,1.2-0.7,1.8-1.2c1.3-1.2,2.5-1.1,3.9,0c3,2.3,6.2,4.4,9.6,6.3
		c-3.1-2.8-6.2-5.7-9.7-8.8c4.3-3.4,7.9-6.2,12-9.4C43.1,15.1,43.1,22.1,43.1,22.1z"/>
</g>
</svg>
