<?xml version="1.0" encoding="utf-8"?>
<!-- Generator: Adobe Illustrator 22.0.1, SVG Export Plug-In . SVG Version: 6.00 Build 0)  -->
<svg version="1.1" id="Layer_1" xmlns="http://www.w3.org/2000/svg" xmlns:xlink="http://www.w3.org/1999/xlink" x="0px" y="0px"
	 viewBox="0 0 48 48" style="enable-background:new 0 0 48 48;" xml:space="preserve">
<style type="text/css">
	.st0{fill:#992F3A;}
</style>
<path class="st0" d="M23.1,3.5C14.7,4.2,8.5,12.3,9.9,20.8c1.7,10,7.2,18,13.3,25.8c1.1,1.4,1.7,0.6,2.5-0.3c2.9-3.7,5.7-7.5,8-11.6
	c2.8-5.1,5.1-10.4,5.3-15.5C39,9.6,31.8,2.9,23.1,3.5z M24.3,24.5c-2.9-0.1-5.3-2.5-5.4-5.4c-0.1-3,2.4-5.5,5.5-5.5
	c3,0,5.5,2.5,5.5,5.5C29.8,22.1,27.2,24.5,24.3,24.5z"/>
</svg>
