<?xml version="1.0" encoding="utf-8"?>
<!-- Generator: Adobe Illustrator 20.0.0, SVG Export Plug-In . SVG Version: 6.00 Build 0)  -->
<svg version="1.1" id="Layer_1" xmlns="http://www.w3.org/2000/svg" xmlns:xlink="http://www.w3.org/1999/xlink" x="0px" y="0px"
	 viewBox="0 0 48 48" style="enable-background:new 0 0 48 48;" xml:space="preserve">
<g>
	<path d="M39.8,34.2c2.3-1.8,3.4-4.3,4.1-7v-2c-1.3-4.8-4.3-7.9-9-9.6c-0.4-0.1-0.8-0.5-0.9-0.9c-2.2-5-6.2-7.6-11.4-8.7
		c-0.2,0-5.3-0.5-8.6,0.6c-5,1.7-8.3,5.1-9.7,10.2v3.6c0.8,2.7,2.1,5.1,4.2,7c0.4,0.4,0.5,1.4,0.3,1.9c-0.6,1.2-1.4,2.3-2.2,3.5
		c-1.1,1.6-0.7,3,1.3,3.1c1.6,0.1,3.3-0.2,4.8-0.7c2-0.7,3.8-1.8,5.7-2.8c3,3.7,7,5.2,11.6,5.6c1.1,0.1,2.3,0.7,3.2,1.4
		c2.3,1.7,7.7,2.9,9.1,3c-1.2-2.1-2.2-3.7-3.1-5.4C38.6,35.8,38.8,35,39.8,34.2z M27.2,26.3c-1.7,1.1-3.8,1.8-5.8,2.1
		c-2.5,0.3-4.7,1.1-6.8,2.3c-1.1,0.6-2.2,1.1-3.8,2c0.5-1.3,0.8-2,1.1-2.7c0.7-1.8,0.6-3.1-1.1-4.6c-4.8-4-4.4-10.1,0.5-13.9
		c4.6-3.5,11.8-3.6,16.5-0.2C33.1,15.5,33,22.6,27.2,26.3z"/>
</g>
</svg>
