<?xml version="1.0" encoding="utf-8"?>
<!-- Generator: Adobe Illustrator 20.0.0, SVG Export Plug-In . SVG Version: 6.00 Build 0)  -->
<svg version="1.1" id="Layer_1" xmlns="http://www.w3.org/2000/svg" xmlns:xlink="http://www.w3.org/1999/xlink" x="0px" y="0px"
	 viewBox="0 0 48 48" style="enable-background:new 0 0 48 48;" xml:space="preserve">
<g>
	<path d="M23.9,40.7c-4.4,0-8.8-0.1-13.2,0c-2.1,0-2.7-0.9-2.6-2.8c0.1-1.6,0.8-2.8,1.8-3.9c6.7-7.4,21.4-7.4,28,0.1
		c0.5,0.6,1,1.2,1.3,1.9c1.4,3,0.4,4.7-2.9,4.7C32.2,40.7,28.1,40.7,23.9,40.7z"/>
	<path d="M23.8,25.1c-5.4,0-8.1-3.5-7.9-9.9c0.1-4.6,4-8.4,8.5-7.9c2.4,0.3,4.4,2.1,6,3.9c2.5,2.9,1.8,6.5,0.5,9.7
		C29.7,23.8,27.1,25.1,23.8,25.1z"/>
</g>
</svg>
