<?xml version="1.0" encoding="utf-8"?>
<!-- Generator: Adobe Illustrator 22.0.1, SVG Export Plug-In . SVG Version: 6.00 Build 0)  -->
<svg version="1.1" id="Layer_1" xmlns="http://www.w3.org/2000/svg" xmlns:xlink="http://www.w3.org/1999/xlink" x="0px" y="0px"
	 viewBox="0 0 96 96" style="enable-background:new 0 0 96 96;" xml:space="preserve">
<style type="text/css">
	.st0{fill:#FFFFFF;}
</style>
<path class="st0" d="M25.4,13.9c9.5,0,9.5,0,11.8,9.2c0,0.1,0,0.3,0.1,0.4c3.6,6.9,2.3,12.6-4.1,17.2c-1.5,1.1-1.5,2.3-0.4,3.9
	C38,52,44.2,58.3,52.1,63c1.7,1,3,1,4.2-0.7c3.8-5.2,7.9-6.6,14.7-4.6c10.8,3.1,11,2.3,11,13.8c0,10.8-0.6,11.3-11.3,9.8
	c-29.3-4-53.9-29.4-57.1-59.1c-0.8-7.6-0.1-8.4,7.6-8.4c0.3,0,0.6,0,0.8,0C23.2,13.9,24.3,13.9,25.4,13.9z"/>
</svg>
