<?xml version="1.0" encoding="utf-8"?>
<!-- Generator: Adobe Illustrator 20.0.0, SVG Export Plug-In . SVG Version: 6.00 Build 0)  -->
<svg version="1.1" id="Layer_1" xmlns="http://www.w3.org/2000/svg" xmlns:xlink="http://www.w3.org/1999/xlink" x="0px" y="0px"
	 viewBox="0 0 96 96" style="enable-background:new 0 0 96 96;" xml:space="preserve">
<style type="text/css">
	.st0{fill:#FFFFFF;}
</style>
<g>
	<path class="st0" d="M48,12.6c-19.6,0-35.4,16-35.4,35.5c0,19.3,16,35.2,35.3,35.3C67.3,83.5,83.4,67.5,83.4,48
		C83.5,28.5,67.5,12.6,48,12.6z M48.2,80.3c-17.9,0.1-32.6-14.5-32.6-32.4c0-17.8,14.5-32.2,32.3-32.2c17.9,0,32.3,14.4,32.4,32.2
		C80.4,65.6,66,80.2,48.2,80.3z M66,45.8c-8.9-5-17.7-10.1-26.6-15.2c-3-1.7-3.7-1.3-3.7,2.3c0,5,0,25.2,0.1,30.3
		c0,3.5,0.8,3.9,3.8,2.2C48.3,60.3,57.1,55.1,66,50C68.7,48.4,68.5,47.2,66,45.8z M39,62.1V34c7.9,4.5,15.8,9,24.4,13.9
		C55,52.8,47.2,57.4,39,62.1z"/>
	<path class="st0" d="M66,45.8c-8.9-5-17.7-10.1-26.6-15.2c-3-1.7-3.7-1.3-3.7,2.3c0,5,0,25.2,0.1,30.3c0,3.5,0.8,3.9,3.8,2.2
		C48.3,60.3,57.1,55.1,66,50C68.7,48.4,68.5,47.2,66,45.8z M39,62.1V34c7.9,4.5,15.8,9,24.4,13.9C55,52.8,47.2,57.4,39,62.1z"/>
	<path class="st0" d="M66,45.8c-8.9-5-17.7-10.1-26.6-15.2c-3-1.7-3.7-1.3-3.7,2.3c0,5,0,25.2,0.1,30.3c0,3.5,0.8,3.9,3.8,2.2
		C48.3,60.3,57.1,55.1,66,50C68.7,48.4,68.5,47.2,66,45.8z M39,62.1V34c7.9,4.5,15.8,9,24.4,13.9C55,52.8,47.2,57.4,39,62.1z"/>
</g>
</svg>
