<?xml version="1.0" encoding="utf-8"?>
<!-- Generator: Adobe Illustrator 22.0.1, SVG Export Plug-In . SVG Version: 6.00 Build 0)  -->
<svg version="1.1" id="Layer_1" xmlns="http://www.w3.org/2000/svg" xmlns:xlink="http://www.w3.org/1999/xlink" x="0px" y="0px"
	 viewBox="0 0 320 320" style="enable-background:new 0 0 320 320;" xml:space="preserve">
<style type="text/css">
	.st0{fill:#FFFFFF;}
	.st1{enable-background:new    ;}
</style>
<g>
	<path class="st0" d="M178,87.1c-6-1.8-28-25.8-29.4-27.8c3.2-31.3-24-39.3-24-39.3l-18.4,18.4c0,0,8.1,27.2,39.3,24
		c1.9,1.4,26.1,23.5,27.8,29.4c-3.7,4.3-7,9.8-5.8,11.1l0,0L189.4,81l0,0C188.1,79.7,182.4,83.3,178,87.1z"/>
	<path class="st0" d="M142,87.1c6-1.8,28-25.8,29.4-27.8c-3.2-31.3,24-39.3,24-39.3l18.4,18.4c0,0-8.1,27.2-39.3,24
		c-1.9,1.4-26.1,23.5-27.8,29.4c3.7,4.3,7,9.8,5.8,11.1l0,0L130.6,81l0,0C131.9,79.7,137.6,83.3,142,87.1z"/>
</g>
<g class="st1">
	<path class="st0" d="M54.1,151.5c-2.2-0.3-4-0.9-5.3-2c-1.4-1.1-2.4-2.5-3-4.1c-0.7-1.6-1-3.4-1.1-5.4c0-2,0.2-4,0.7-6.1
		s1.2-4,2.2-6c1-1.9,2.1-3.6,3.4-5.2c1.3-1.5,2.7-2.7,4.3-3.6s3.3-1.4,5-1.4c2.4,0,4.2,0.5,5.5,1.4c1.2,0.9,2,2.1,2.3,3.6
		s0.2,3-0.3,4.7s-1.3,3.3-2.3,4.8c-1.1,1.5-2.4,2.9-3.9,4c-1.5,1.2-3.2,1.9-5,2.2c-0.3-0.1-0.6-0.3-0.9-0.7s-0.5-0.9-0.6-1.4
		s-0.1-1.1,0.1-1.8c0.2-0.6,0.6-1.2,1.3-1.7c1.5-0.3,2.7-0.8,3.7-1.6s1.8-1.6,2.3-2.5c0.5-0.9,0.8-1.8,0.7-2.7c0-0.9-0.4-1.5-1-1.9
		c-1-0.6-2.1-0.7-3.2-0.2c-1.1,0.5-2.2,1.2-3.3,2.3c-1.1,1.1-2,2.4-2.9,3.9s-1.5,3.1-1.9,4.7c-0.4,1.6-0.5,3.2-0.4,4.6
		c0.2,1.5,0.7,2.7,1.7,3.7c0.9,0.6,1.8,1,2.8,1.1s2,0,3-0.2c1-0.3,1.9-0.7,2.9-1.2c0.9-0.5,1.7-1.1,2.5-1.8c0.8-0.6,1.4-1.3,1.9-1.9
		c0.5-0.6,0.9-1.2,1-1.6c0.3,0,0.6,0,0.7,0.1s0.3,0.2,0.4,0.3s0.2,0.2,0.2,0.4c-0.9,2.4-1.9,4.3-2.8,5.9c-1,1.6-1.9,2.8-2.8,3.8
		c-0.9,1-1.8,1.7-2.7,2.1c-0.8,0.5-1.6,0.8-2.3,1s-1.3,0.3-1.8,0.2C54.7,151.5,54.3,151.5,54.1,151.5z"/>
	<path class="st0" d="M82.8,138.2c-0.3,1.4-0.7,2.7-1.2,3.9c-0.5,1.3-1.1,2.4-1.8,3.4c-0.7,1-1.5,1.8-2.4,2.5c-0.9,0.6-1.9,1-3,1.1
		c-1.4,0.1-2.6,0.1-3.6-0.2c-0.9-0.2-1.7-0.6-2.3-1.1c-1.1-0.7-2-1.7-2.7-3c-0.6-1.3-0.8-2.9-0.5-4.7c0.3-1.5,0.6-3,1.1-4.5
		s1.1-2.9,1.8-4.1c0.7-1.2,1.6-2.2,2.5-3c1-0.8,2.1-1.2,3.3-1.3c1.2-0.1,2.3,0,3.4,0.3s2,0.7,2.8,1.3s1.5,1.3,2,2.2s0.8,1.9,0.8,3.1
		c0.4-0.1,0.7-0.2,1.1-0.4s0.8-0.4,1.2-0.7c0.4-0.2,0.8-0.5,1.2-0.7c0.4-0.3,0.7-0.5,0.9-0.7c0.2,0.1,0.4,0.2,0.6,0.5
		c0.2,0.2,0.3,0.5,0.4,0.8s0.2,0.6,0.2,0.9s0,0.5-0.1,0.6c-0.4,0.4-0.9,0.8-1.5,1.2s-1.1,0.8-1.7,1.1c-0.6,0.4-1.1,0.7-1.6,0.9
		C83.6,137.8,83.2,138,82.8,138.2z M74.8,138.7c-0.5-0.2-0.9-0.6-1.3-1c1-0.6,1.8-1.2,2.3-1.9s0.9-1.3,1-2c0.2-0.6,0.2-1.1,0-1.6
		c-0.2-0.4-0.5-0.7-0.9-0.8c-0.3-0.1-0.7,0-1.1,0.2s-0.8,0.6-1.2,1.2c-0.4,0.6-0.9,1.4-1.3,2.5s-0.8,2.4-1.2,4
		c-0.3,1.3-0.3,2.4,0,3.2c0.4,0.8,0.9,1.4,1.7,1.8c0.6,0.2,1.2,0.2,1.8,0c0.6-0.2,1.1-0.5,1.6-1s0.9-1.1,1.3-1.8s0.7-1.4,0.9-2.2
		c-0.6,0.1-1.1,0.1-1.5,0s-0.8-0.1-1.1-0.3C75.3,139.1,75,138.9,74.8,138.7z"/>
	<path class="st0" d="M88.9,127.4c0.5-0.1,1-0.2,1.6-0.2s1.1,0.1,1.7,0.2c0.5,0.1,1,0.2,1.4,0.4c0.4,0.2,0.7,0.3,0.8,0.5
		c-1.1,2-2.1,3.8-2.9,5.4c0.9-1.5,2-2.8,3.2-3.9c1.2-1.2,2.6-2,4.3-2.4l0,0c1-0.1,1.9-0.2,2.6-0.2s1.2,0.2,1.6,0.5
		c0.4,0.3,0.5,0.7,0.5,1.3c0,0.6-0.3,1.3-0.8,2.2c-0.2,0.3-0.3,0.6-0.5,1c-0.2,0.3-0.3,0.6-0.5,1c0.8-1.3,1.8-2.5,3-3.6
		c1.1-1.1,2.4-1.8,4-2.2c1.3-0.2,2.4-0.2,3-0.1c0.7,0.2,1.1,0.5,1.3,0.9c0.2,0.4,0.2,1-0.1,1.7c-0.2,0.7-0.5,1.5-1,2.4
		c-0.9,1.8-1.6,3.6-2.1,5.2c-0.5,1.6-0.7,3.3-0.8,5.1c0,1,0.2,1.6,0.6,1.8s0.9,0.1,1.4-0.2s1.1-0.9,1.6-1.7s0.9-1.6,1.2-2.6
		c0.1,0,0.2,0,0.4,0c0.2,0.1,0.4,0.2,0.4,0.4c-0.1,1.1-0.4,2.2-0.7,3.2c-0.4,1-0.9,2-1.5,2.8s-1.4,1.5-2.3,2s-1.9,0.7-3,0.7
		c-1.2,0-2-0.5-2.5-1.4s-0.7-2.1-0.7-3.5s0.2-3,0.5-4.6c0.4-1.7,0.8-3.3,1.3-4.9c0-0.6-0.3-0.8-0.8-0.7s-1.1,0.4-1.8,1
		c-0.7,0.6-1.4,1.3-2.1,2.3c-0.7,0.9-1.2,1.9-1.5,3c-0.2,1.3-0.3,2.6-0.3,4s0,3,0.1,4.7c0,0-0.2,0-0.7,0s-1,0-1.6-0.1
		s-1.1-0.2-1.6-0.3s-0.8-0.3-0.9-0.5c-0.4-2.3-0.5-4.6-0.2-7s0.8-4.6,1.4-6.6c0-0.6-0.3-0.8-0.8-0.7s-1.1,0.4-1.8,1
		c-0.7,0.6-1.4,1.3-2.1,2.2s-1.2,1.9-1.6,2.9c-0.2,1.3-0.4,2.7-0.4,4.1c0,1.4,0,3,0.1,4.8c0,0-0.2,0-0.7,0s-1,0-1.6-0.1
		s-1.1-0.2-1.6-0.3s-0.8-0.3-0.9-0.5c-0.3-1.4-0.4-2.9-0.4-4.3s0.2-2.9,0.4-4.4c0.2-1.4,0.6-2.8,1-4.1s0.8-2.5,1.2-3.6
		c0.4-1.1,0.8-2,1.2-2.8C88.3,128.3,88.7,127.8,88.9,127.4z"/>
	<path class="st0" d="M113,140.1c0.2-1.5,0.6-3,1.1-4.5s1.1-2.8,1.8-4c0.7-1.2,1.6-2.2,2.5-3c1-0.8,2.1-1.2,3.3-1.3
		c1.6-0.1,2.9,0,3.9,0.4s1.7,0.9,2.2,1.5c0.5,0.7,0.8,1.4,0.9,2.3c0.1,0.9,0,1.7-0.2,2.6c-0.2,0.9-0.6,1.8-1,2.6
		c-0.5,0.8-1,1.5-1.5,2.1c-1.1,1.1-2.3,1.8-3.7,2c-1.3,0.2-2.8,0.3-4.3,0.2c0,1,0.2,1.8,0.7,2.5c0.5,0.6,1.1,1,1.9,1.3
		c0.8,0.2,1.7,0.3,2.6,0.2s1.9-0.4,2.8-0.8c0.9-0.4,1.7-1,2.4-1.7s1.2-1.5,1.4-2.5c0.1,0,0.2,0,0.4,0c0.2,0.1,0.4,0.2,0.4,0.4
		c-0.2,2-0.8,3.7-1.8,5s-2.2,2.3-3.6,2.9c-1.4,0.6-2.9,0.9-4.4,0.8s-2.9-0.4-4.2-1.1c-1.2-0.7-2.2-1.7-2.9-3
		C112.9,143.6,112.7,142,113,140.1z M123.6,136c0.4-0.5,0.6-1,0.7-1.6c0.1-0.5,0.1-1,0.1-1.4c-0.1-0.4-0.2-0.7-0.5-1
		c-0.2-0.3-0.5-0.4-0.8-0.5s-0.6,0-1,0.1s-0.7,0.4-1.1,0.9c-0.4,0.4-0.7,1.1-1.1,1.9c-0.4,0.8-0.8,1.9-1.2,3.2
		c0.9,0.2,1.8,0.2,2.7-0.1C122.3,137.4,123,136.8,123.6,136z"/>
	<path class="st0" d="M145.4,151.2c-0.2,0.1-0.4,0.2-0.6,0.2c-0.2,0.1-0.6,0.1-0.9,0.1c-1.1,0-1.9-0.5-2.4-1.5s-0.7-2.3-0.8-3.9
		c0-1.6,0.1-3.5,0.5-5.5c0.4-2.1,0.8-4.2,1.4-6.3c0.6-2.1,1.2-4.3,1.9-6.3c0.7-2.1,1.4-3.9,2-5.5c-0.8-0.1-1.6-0.1-2.5-0.1
		c-0.8,0.1-1.7,0.2-2.6,0.6c-0.9,0.3-1.9,0.8-2.9,1.5s-2,1.5-3.2,2.6c-0.7-1.1-0.8-2.2-0.5-3.4c0.4-1.2,1-2.2,2.1-3.2
		c1-1,2.3-1.8,3.9-2.4s3.2-1,5-1.1c1-0.1,2,0,3.1,0.2s2.2,0.5,3.3,0.7c1.1,0.3,2.2,0.5,3.3,0.7s2.2,0.3,3.2,0.3s2-0.2,3-0.6
		c0.9-0.4,1.8-1.1,2.6-2c0.2,0.5,0.4,1.1,0.4,1.8s0,1.3-0.1,1.9s-0.3,1.2-0.6,1.8c-0.3,0.6-0.7,1.1-1.2,1.5c-1.1,0.5-2.2,0.8-3.2,1
		s-2,0.2-2.9,0.2s-1.8-0.1-2.7-0.3c-0.8-0.2-1.7-0.4-2.5-0.6c-1.5,3.4-2.6,6.7-3.5,9.9c-0.8,3.2-1.4,6.3-1.8,9.4
		c0,1,0.2,1.6,0.7,1.8s1.1,0.1,1.7-0.2c0.6-0.4,1.3-0.9,1.9-1.6c0.6-0.7,1.1-1.6,1.3-2.5c0.1,0,0.2,0,0.4,0c0.2,0.1,0.4,0.2,0.4,0.4
		c-0.1,0.9-0.3,1.9-0.7,3s-0.9,2.1-1.5,3.1s-1.4,1.9-2.2,2.7C147.3,150.4,146.4,150.9,145.4,151.2z"/>
	<path class="st0" d="M165.4,142.7c0,1,0.2,1.6,0.6,1.8c0.4,0.2,0.9,0.1,1.4-0.2s1.1-0.9,1.6-1.6c0.5-0.8,0.9-1.6,1.2-2.5
		c0.1,0,0.2,0,0.4,0c0.2,0.1,0.4,0.2,0.4,0.4c-0.1,1.1-0.3,2.1-0.7,3.2c-0.4,1-0.9,1.9-1.5,2.7s-1.4,1.4-2.2,1.9
		c-0.9,0.5-1.9,0.7-3,0.7c-0.5,0-1-0.2-1.3-0.5c-0.4-0.3-0.6-0.7-0.8-1.3c-0.2-0.5-0.3-1.2-0.4-1.9c-0.1-0.7-0.1-1.5,0-2.4
		c-0.8,1.4-1.5,2.6-2.1,3.4c-0.5,0.8-1.1,1.4-1.5,1.8s-1,0.6-1.5,0.7c-0.5,0.1-1.2,0.1-2,0.1c-0.1,0-0.2,0-0.3,0s-0.2,0-0.4-0.1
		c-0.6-0.2-1.1-0.6-1.6-1.4c-0.5-0.7-0.8-1.6-0.9-2.7c-0.1-1.2-0.1-2.5,0.2-3.9s0.5-2.9,1-4.4s1-2.9,1.6-4.2s1.3-2.5,2-3.4
		c0.6-0.8,1.3-1.4,2.1-1.6s1.5-0.3,2.3-0.1c0.8,0.2,1.5,0.5,2.3,1c0.7,0.5,1.4,1.1,1.9,1.8c0.4-1.1,0.8-1.9,1.1-2.4
		c0.5-0.1,1-0.2,1.6-0.2s1.1,0.1,1.7,0.2c0.5,0.1,1,0.2,1.4,0.4c0.4,0.2,0.7,0.3,0.8,0.5c-0.8,1.3-1.4,2.5-2,3.6s-1.1,2.2-1.5,3.2
		c-0.4,1.1-0.8,2.2-1,3.4C165.6,140,165.4,141.3,165.4,142.7z M155.5,142.6c0.1,0.4,0.2,0.6,0.4,0.7c0.1,0.1,0.5,0,1-0.3
		c0.9-0.9,1.8-1.9,2.5-3c0.7-1,1.3-2,1.8-2.9s0.8-1.6,1.1-2.1c0.2-0.6,0.4-0.9,0.4-0.9c-0.6-1.3-1.2-2.1-1.8-2.3s-1.2-0.1-1.8,0.5
		c-0.6,0.5-1.1,1.3-1.5,2.3c-0.5,1-0.9,2-1.2,3.1s-0.6,2.1-0.7,3C155.4,141.6,155.4,142.3,155.5,142.6z"/>
	<path class="st0" d="M173,149.1c-0.8,0-1.7-0.2-2.6-0.6s-1.7-0.8-2.2-1.4s-0.9-1.3-1.1-2.1c-0.1-0.8,0.2-1.7,0.9-2.6l5.8-7.9
		c-0.8-1.3-1.2-2.4-1.1-3.4c0.1-1,0.4-1.8,0.9-2.4c0.6-0.6,1.3-1.1,2.1-1.4c0.9-0.3,1.7-0.4,2.6-0.3c0.8,0.1,1.5,0.4,2.1,0.9
		s0.9,1.2,0.9,2.2c0,0.5-0.1,1-0.4,1.4c-0.3,0.5-0.6,0.9-0.9,1.2c-0.4,0.4-0.8,0.8-1.3,1.2c1.3,1.5,2.2,2.9,2.7,4.2s0.7,2.6,0.6,3.7
		c-0.1,1.1-0.4,2.1-1,3s-1.3,1.6-2.1,2.2c-0.8,0.6-1.8,1.1-2.8,1.4C175.1,149,174,149.2,173,149.1z M170,144.1
		c0.6,0.7,1.3,1.1,2,1.2s1.4,0,2-0.2c0.6-0.3,1.2-0.7,1.6-1.3c0.5-0.6,0.8-1.3,1-2s0.2-1.5,0-2.3s-0.7-1.6-1.4-2.3L170,144.1z"/>
	<path class="st0" d="M186.8,149.1c-1.1,0-1.8-0.4-2.3-1.2s-0.8-1.8-0.8-3.1c-0.1-1.3,0-2.7,0.3-4.4s0.6-3.4,1.1-5.2s1-3.6,1.6-5.4
		c0.6-1.8,1.2-3.5,1.7-5h-7.5c0.1-0.9,0.2-1.6,0.4-2s0.5-0.8,0.8-1.1l7.7-0.8c0.2-0.6,0.4-1.1,0.6-1.5c0.2-0.4,0.3-0.8,0.5-1.1
		c1-0.4,2.1-0.7,3.1-0.6c1,0,1.9,0.2,2.6,0.6c-0.4,0.7-0.7,1.3-1.1,2l7.7-0.8c-0.1,1.1-0.3,2-0.5,2.9s-0.8,1.7-1.6,2.4h-7.5
		c-1,2.7-2,5.5-2.8,8.6s-1.5,6.1-2,9.1c-0.1,0.3-0.1,0.5-0.1,0.7c0.1,0.8,0.3,1.2,0.7,1.2s0.9-0.1,1.4-0.4c0.5-0.4,1-0.9,1.5-1.6
		c0.5-0.7,0.8-1.5,1.1-2.4c0.1,0,0.2,0,0.4,0c0.1,0,0.2,0.1,0.3,0.2c0.1,0.1,0.1,0.2,0.2,0.3c-0.1,1.1-0.4,2.1-0.7,3.2
		c-0.4,1-0.8,1.9-1.4,2.7c-0.6,0.8-1.4,1.4-2.2,1.9C188.9,148.9,187.9,149.1,186.8,149.1z"/>
	<path class="st0" d="M192.5,140.1c0.2-1.5,0.6-3,1.1-4.5s1.1-2.8,1.8-4s1.6-2.2,2.5-3c1-0.8,2.1-1.2,3.3-1.3c1.6-0.1,2.9,0,3.9,0.4
		s1.7,0.9,2.2,1.5c0.5,0.7,0.8,1.4,0.9,2.3c0.1,0.9,0,1.7-0.2,2.6c-0.2,0.9-0.6,1.8-1,2.6c-0.5,0.8-1,1.5-1.5,2.1
		c-1.1,1.1-2.3,1.8-3.7,2c-1.3,0.2-2.8,0.3-4.3,0.2c0,1,0.2,1.8,0.7,2.5c0.5,0.6,1.1,1,1.9,1.3c0.8,0.2,1.7,0.3,2.6,0.2
		s1.9-0.4,2.8-0.8c0.9-0.4,1.7-1,2.4-1.7s1.2-1.5,1.4-2.5c0.1,0,0.2,0,0.4,0c0.2,0.1,0.4,0.2,0.4,0.4c-0.2,2-0.8,3.7-1.8,5
		s-2.2,2.3-3.6,2.9c-1.4,0.6-2.9,0.9-4.4,0.8s-2.9-0.4-4.2-1.1c-1.2-0.7-2.2-1.7-2.9-3C192.4,143.6,192.2,142,192.5,140.1z
		 M203.1,136c0.4-0.5,0.6-1,0.7-1.6s0.1-1,0.1-1.4c-0.1-0.4-0.2-0.7-0.5-1c-0.2-0.3-0.5-0.4-0.8-0.5s-0.6,0-1,0.1s-0.7,0.4-1.1,0.9
		s-0.7,1.1-1.1,1.9c-0.4,0.8-0.8,1.9-1.2,3.2c0.9,0.2,1.8,0.2,2.7-0.1C201.8,137.4,202.5,136.8,203.1,136z"/>
	<path class="st0" d="M228.6,117.8c2.5,0.3,4.5,1.2,6,2.8s2.4,3.4,2.9,5.6c0.3,1.2,0.4,2.4,0.5,3.6s0,2.5-0.2,3.8s-0.4,2.5-0.8,3.7
		c-0.3,1.2-0.7,2.4-1.2,3.5c-0.6,1.3-1.3,2.6-2.1,3.9c-0.9,1.3-1.9,2.5-3,3.5s-2.4,1.9-3.8,2.5s-2.9,0.8-4.5,0.7
		c-1.2,0-2.3-0.2-3.1-0.7c-0.9-0.4-1.6-1-2.1-1.7s-0.9-1.5-1.2-2.5c-0.2-0.9-0.3-1.9-0.3-2.9s0.2-2,0.5-3s0.7-1.9,1.2-2.8
		c-1.1-1.1-1.8-2.2-2.1-3.5c-0.4-1.3-0.4-2.6-0.3-4.1c0.2-1.6,0.7-3.3,1.4-4.8c0.8-1.6,1.8-3,3-4.2s2.6-2.2,4.2-2.9
		C225.2,117.9,226.8,117.6,228.6,117.8z M226.9,138.3c0,0.2-0.1,0.4-0.2,0.7c-0.1,0.3-0.2,0.5-0.3,0.8s-0.3,0.6-0.6,0.9
		c-0.2,0.3-0.5,0.5-0.9,0.6c-0.7-0.1-1.3-0.3-1.8-0.4c-0.5-0.2-1.1-0.4-1.7-0.6c-0.1,0.4-0.2,1-0.3,1.6s-0.2,1.2-0.2,1.8
		s0.1,1.1,0.4,1.6c0.2,0.5,0.7,0.7,1.4,0.9c0.9,0.1,1.8-0.1,2.7-0.6s1.7-1.1,2.4-1.9c0.7-0.8,1.4-1.6,1.9-2.6c0.6-0.9,1-1.7,1.3-2.5
		c0.4-1,0.8-2,1.1-3s0.5-2,0.6-3c0.2-2.3,0-4.1-0.6-5.4c-0.7-1.3-1.5-2.2-2.6-2.7s-2.3-0.6-3.6-0.3c-1.3,0.3-2.5,0.8-3.5,1.7
		c-1.1,0.8-1.9,2-2.4,3.4c-0.6,1.4-0.6,2.9-0.3,4.7c0.3-0.4,0.7-1,1.2-1.6s0.9-1.3,1.4-2c0.5-0.6,1-1.2,1.5-1.8c0.5-0.6,1-1,1.4-1.2
		c0.4-0.1,0.8-0.1,1.2,0s0.8,0.2,1.2,0.4c0.4,0.2,0.7,0.4,0.9,0.7c0.3,0.3,0.5,0.7,0.6,1c0,0.1,0,0.2,0,0.4c-0.8,0.6-1.5,1.2-2,1.7
		s-1.1,1.1-1.6,1.7s-0.9,1.2-1.4,1.8c-0.4,0.6-0.9,1.4-1.4,2.2c0.5,0.4,1.2,0.8,2,1C225.5,138.1,226.3,138.2,226.9,138.3z"/>
	<path class="st0" d="M242.9,127.3c0.5-0.1,1-0.2,1.6-0.2s1.2,0.1,1.7,0.2s1,0.2,1.4,0.4c0.4,0.2,0.7,0.3,0.8,0.5
		c-0.8,1.5-1.6,2.8-2.2,4c-0.6,1.2-1.1,2.4-1.5,3.5s-0.7,2.2-0.9,3.3s-0.4,2.3-0.4,3.5l0,0c0,0.9,0.2,1.5,0.6,1.7
		c0.4,0.3,0.9,0.3,1.4,0.1s1.1-0.6,1.7-1.1c0.6-0.6,1.1-1.2,1.5-2c0.2-1.4,0.5-2.9,0.9-4.3s0.8-2.9,1.3-4.2s0.9-2.4,1.3-3.4
		c0.4-1,0.8-1.7,1.1-2.1c0.5-0.1,1-0.2,1.6-0.2s1.2,0.1,1.7,0.2s1,0.2,1.4,0.4c0.4,0.2,0.7,0.3,0.8,0.5c-0.8,1.5-1.6,2.8-2.2,4
		s-1.1,2.4-1.5,3.5s-0.7,2.2-0.9,3.3s-0.4,2.3-0.4,3.5l0,0c0,1,0.2,1.6,0.6,1.8c0.4,0.2,0.9,0.1,1.4-0.2s1.1-0.9,1.6-1.7
		s0.9-1.6,1.2-2.6c0.1,0,0.2,0,0.4,0c0.1,0,0.2,0.1,0.3,0.1c0.1,0.1,0.1,0.2,0.2,0.3c-0.1,1.1-0.4,2.2-0.7,3.2
		c-0.4,1.1-0.9,2-1.5,2.8s-1.4,1.5-2.3,2c-0.9,0.5-1.9,0.7-3.1,0.7c-1.1,0-1.9-0.4-2.4-1.2s-0.8-1.8-0.8-3.1
		c-0.3,0.5-0.6,0.9-0.9,1.4c-0.4,0.4-0.8,0.9-1.3,1.3l0,0c-0.6,0.5-1.3,0.9-2,1.2c-0.8,0.3-1.7,0.5-2.7,0.5c-1.2,0-2-0.5-2.5-1.4
		s-0.7-2.2-0.7-3.6c0-1.5,0.2-3.1,0.6-4.8c0.4-1.8,0.8-3.4,1.4-5c0.5-1.6,1.1-3,1.6-4.3S242.6,127.8,242.9,127.3z"/>
	<path class="st0" d="M266,127.6c0.1,0.1,0.3,0.2,0.6,0.2c0.3,0,0.6,0,1,0s0.7-0.1,1.1-0.1c0.4-0.1,0.6-0.1,0.9-0.1
		c0.5-0.1,1-0.1,1.4,0.1s1,0.4,1.4,0.7s0.8,0.6,1.1,0.9c0.3,0.3,0.5,0.6,0.7,0.8c-0.7,1.3-1.4,2.4-2,3.4s-1.1,2-1.5,2.9
		c-0.4,1-0.8,1.9-1,3c-0.2,1-0.4,2.2-0.5,3.5c0,1,0.2,1.5,0.7,1.7s1.1,0.1,1.7-0.2c0.6-0.4,1.3-0.9,1.9-1.6c0.6-0.7,1.1-1.6,1.3-2.5
		c0.1,0,0.2,0,0.4,0c0.2,0.1,0.4,0.2,0.4,0.4c-0.1,0.8-0.3,1.6-0.6,2.5c-0.3,0.7-0.6,1.5-1.1,2.3s-1.1,1.5-2,2.2
		c-0.6,0.5-1.2,0.9-2,1.2c-0.7,0.3-1.6,0.4-2.6,0.4c-1.1,0-1.8-0.3-2.3-0.9c-0.5-0.6-0.8-1.4-1-2.3c-0.1-1-0.1-2.1,0.1-3.3
		s0.4-2.5,0.8-3.8s0.8-2.6,1.3-3.9s1-2.5,1.4-3.5c-0.5,0.1-1,0.1-1.5,0.1s-1-0.1-1.5-0.2c-0.4,1-0.9,2.3-1.4,3.7
		c-0.6,1.4-1.2,2.9-2,4.5s-1.5,3-2.4,4.4s-1.8,2.6-2.7,3.6c-0.4-0.1-0.8-0.1-1.1-0.3c-0.3-0.1-0.5-0.3-0.7-0.5s-0.3-0.5-0.2-0.9
		c0.5-0.3,1.1-0.8,1.8-1.7s1.3-2,2-3.4s1.3-3,1.9-4.8s1.1-3.8,1.5-6c-0.6-0.7-0.8-1.3-0.8-2c0-0.6,0.2-1.2,0.5-1.7s0.8-0.9,1.3-1.2
		c0.5-0.3,1.1-0.4,1.6-0.3s1,0.4,1.5,0.8C265.7,125.8,265.9,126.5,266,127.6z"/>
</g>
<g>
	<path class="st0" d="M69.2,163.6c0.7,0,1.5,0.2,1.5,0.7s-0.2,1.1-0.9,1.8l-4.7,5.3c-0.7,0.9-1.1,2.4-0.9,3.6l8.4,64.3H73l7.3-64.3
		c0.2-1.3-0.2-2.5-0.9-3.3l-5.6-5.6c-0.5-0.5-1.1-1.1-1.1-1.8c0-0.5,0.5-0.7,1.5-0.7H97c0.7,0,1.3,0.2,1.3,0.7c0,0.7-0.4,1.3-1.1,2
		l-5.8,5.8c-0.4,0.5-0.7,1.6-0.5,3.1l8.9,64.1h0.4l7.1-64.3c0.2-1.5,0-2.7-0.5-3.3l-5.6-5.6c-0.5-0.5-0.9-1.1-0.9-1.8
		c0-0.5,0.9-0.7,1.6-0.7H125c0.7,0,1.3,0.2,1.3,0.7c0,0.7-0.4,1.3-0.7,1.6l-6.2,6.5c-0.9,1.1-1.5,2.7-1.6,4.2l-13.4,122
		c0,0.7-0.5,1.1-1.5,1.1h-5.3c-0.7,0-1.3-0.4-1.5-1.1l-11.8-85.4h-0.4l-9.6,85.4c0,0.7-0.5,1.1-1.5,1.1h-5.3c-0.7,0-1.3-0.4-1.5-1.1
		l-16-122c-0.2-1.5-0.9-2.9-2-4.2l-4.9-6c-0.7-0.9-1.3-1.5-1.3-2.2c0-0.5,0.7-0.7,1.5-0.7L69.2,163.6L69.2,163.6z"/>
	<path class="st0" d="M137.3,176.7c0-2.2-0.4-3.8-1.6-5.1l-5.4-5.3c-0.4-0.5-1.3-1.1-1.3-1.6s0.4-1.1,1.1-1.1h28.5
		c0.7,0,1.1,0.5,1.1,1.1c0,0.5-0.9,1.1-1.3,1.6l-5.4,5.3c-1.3,1.3-1.6,2.9-1.6,5.1v110c0,2.2,0.4,3.8,1.6,5.1l5.4,5.3
		c0.4,0.5,1.3,1.1,1.3,1.6s-0.4,1.1-1.1,1.1H130c-0.7,0-1.1-0.5-1.1-1.1c0-0.5,0.9-1.1,1.3-1.6l5.4-5.3c1.3-1.3,1.6-2.9,1.6-5.1
		v-110L137.3,176.7L137.3,176.7z"/>
	<path class="st0" d="M171.4,176.7c0-2.2-0.5-3.6-1.6-5.1l-4.5-5.3c-0.4-0.5-1.3-1.1-1.3-1.8c0-0.4,0.4-0.9,1.1-0.9h21.8
		c1.3,0,1.8,1.3,2.2,3.1l16.7,78.1h0.4v-68.1c0-2.2-0.4-3.6-1.6-4.9l-5.1-5.4c-0.4-0.5-1.3-1.1-1.3-1.8c0-0.4,0.4-0.9,1.1-0.9h24
		c0.7,0,1.1,0.5,1.1,0.9c0,0.7-0.7,1.3-1.3,1.8l-4.5,5.3c-1.1,1.5-1.6,2.9-1.6,5.1v121.1c0,1.3-0.5,2-1.8,2h-7.6
		c-1.6,0-3.1-1.8-3.6-4.5l-21.2-99h-0.4v90.4c0,2.2,0.5,3.6,1.8,4.9l4.9,5.4c0.5,0.5,1.3,1.1,1.3,1.8c0,0.4-0.4,0.9-1.1,0.9h-24
		c-0.7,0-1.1-0.5-1.1-0.9c0-0.7,0.9-1.3,1.3-1.8l4.5-5.3c1.1-1.5,1.6-2.9,1.6-5.1v-110L171.4,176.7L171.4,176.7z"/>
	<path class="st0" d="M251,225.9h4c0.9,0,1.6-0.4,2-1.3l6.4-12.7c0.4-0.7,0.5-1.1,1.1-1.1c0.5,0,0.7,0.4,0.7,1.1v38.5
		c0,0.5-0.2,0.9-0.7,0.9c-0.7,0-0.9-0.5-1.3-1.3l-6.2-13.3c-0.4-0.9-1.1-1.3-2-1.3h-4v55.2h10.4c2.4,0,4.2-1.1,4.9-3.3l9.8-34.9
		c0.2-0.7,0.7-1.1,1.3-1.1c0.5,0,0.9,0.5,0.9,1.1V298c0,0.9-0.5,1.6-1.5,1.6h-47c-0.7,0-1.1-0.5-1.1-1.1c0-0.5,0.9-0.9,1.3-1.6
		l5.4-5.3c1.3-1.3,1.6-2.9,1.6-5.1v-110c0-2.2-0.4-3.8-1.6-5.1l-5.4-5.3c-0.4-0.5-1.3-1.1-1.3-1.6s0.4-1.1,1.1-1.1h47
		c0.7,0,1.5,0.7,1.5,1.6v45.2c0,0.7-0.4,1.1-0.9,1.1c-0.7,0-1.3-0.5-1.5-1.3l-9.8-34.1c-0.7-2.4-2.4-3.4-4.7-3.4H251V225.9z"/>
</g>
</svg>
