<?xml version="1.0" encoding="utf-8"?>
<!-- Generator: Adobe Illustrator 22.0.1, SVG Export Plug-In . SVG Version: 6.00 Build 0)  -->
<svg version="1.1" id="Layer_1" xmlns="http://www.w3.org/2000/svg" xmlns:xlink="http://www.w3.org/1999/xlink" x="0px" y="0px"
	 viewBox="0 0 96 96" style="enable-background:new 0 0 96 96;" xml:space="preserve">
<style type="text/css">
	.st0{fill:#FEFEFE;}
	.st1{fill:#020202;}
</style>
<path d="M48,93.7c-14.7,0-29.5,0-44.2,0c-1.2,0-1.5-0.2-1.5-1.5c0-29.5,0-59,0-88.5c0-1.2,0.2-1.5,1.5-1.5c29.5,0,59,0,88.5,0
	c1.2,0,1.5,0.2,1.5,1.5c0,29.5,0,59,0,88.5c0,1.2-0.2,1.5-1.5,1.5C77.5,93.6,62.7,93.7,48,93.7z"/>
<path class="st0" d="M18.2,72.2c5.5-0.6,10.6-2.2,15.3-6C26.9,65,22.2,62,20,55.5c2.1,0.4,3.8,0.2,5.6-0.2c-3.2-1-5.8-2.7-7.9-5.4
	c-2.1-2.7-3.3-5.6-3.2-9.2c2,0.5,3.6,1.7,6,1.2c-2.9-2.7-4.9-5.6-5.6-9.2c-0.7-3.6-0.3-7.1,1.7-10.5c6.2,7.3,13.7,12.3,23,14.5
	c1.1-0.3,2.1,0.3,3.1,0.5c0.6,0.3,1.2,0.4,1.8,0.3c2.3-0.3,2.2-0.3,2.2-2.6c0-0.8-0.3-1.7,0.3-2.5c1.2-5.8,4.4-10,10-12.1
	C58,20,59,19.8,60,19.5c1.3-0.5,2.7-0.4,4-0.1c3.2,0.8,6.3,1.9,8.7,4.4c0.5,0.5,0.9,0.3,1.5,0.2c3-0.7,5.8-1.7,8.4-3.4
	c0.8,0.7,0,1.1-0.3,1.6c-1.3,2.4-2.9,4.4-5.6,6.3c3,0.1,5.1-1,7.8-1.7c-1.7,2.5-3.3,4.4-5.3,5.9c-1.4,1-2,2.1-1.9,3.9
	c0.1,1.1-0.1,2.3-0.1,3.4c0.1,0.7,0.3,1.3-0.1,1.9c-0.9,3.7-1.7,7.3-3.1,10.8c-1.9,4.7-4.7,8.8-7.8,12.7c-0.8,1.4-1.9,2.5-3.3,3.3
	c-5,4.3-10.9,7.1-17.1,9.1c-2.1,0.7-4.5,0.7-6.7,1c-2.8,0.4-5.7,0.4-8.5,0c-3.6-0.7-7.3-1.2-10.8-2.7c-2.4-1-4.8-2.1-7-3.4
	c0-0.8,0.6-0.5,1-0.5C15.1,72.3,16.7,72.5,18.2,72.2z"/>
<path d="M47.1,32.5c0,0.9,0,1.9,0,2.8c0.2,2.7,0.2,2.7-2.5,2.3c1.7-0.3,2.2-1.3,2.1-3C46.6,33.9,46.1,33,47.1,32.5z"/>
<path class="st1" d="M30.4,79c2.8,0,5.7,0,8.5,0C36,79.7,33.2,79.7,30.4,79z"/>
<path d="M18.2,72.2c-1.8,0.8-3.8-0.1-5.6,0.7c-0.2-0.7-0.2-0.7,0.3-0.7C14.6,72.2,16.4,72.2,18.2,72.2z"/>
<path d="M62.7,68.9c1.1-1.1,2.2-2.2,3.3-3.3C65.5,67.2,64.4,68.3,62.7,68.9z"/>
<path d="M42.8,37.3c-1.1,0.1-2.1-0.3-3.1-0.5c1.2-0.7,2.4,0.1,3.6,0.2C43.6,37,42.9,37.1,42.8,37.3z"/>
<path d="M64,19.4c-1.3,0-2.7,0-4,0.1C61.3,18.8,62.6,18.7,64,19.4z"/>
<path d="M77,42c0-0.6,0.1-1.3,0.1-1.9C77.3,40.8,77.8,41.5,77,42z"/>
<path class="st1" d="M82.2,22.2c0.1-0.5,0.2-1,0.3-1.6C83.4,21.4,82.9,21.8,82.2,22.2z"/>
</svg>
