<?xml version="1.0" encoding="utf-8"?>
<!-- Generator: Adobe Illustrator 22.0.1, SVG Export Plug-In . SVG Version: 6.00 Build 0)  -->
<svg version="1.1" id="Layer_1" xmlns="http://www.w3.org/2000/svg" xmlns:xlink="http://www.w3.org/1999/xlink" x="0px" y="0px"
	 viewBox="0 0 96 96" style="enable-background:new 0 0 96 96;" xml:space="preserve">
<style type="text/css">
	.st0{fill:#FAFAFA;}
</style>
<path d="M47.4,85.5c-10.2-0.9-20.3-1.7-30.5-2.6C8.6,82.2,3.7,78.4,2.4,69.5C0.5,56.4,0.7,43.5,2.3,30.3C3.2,22.1,7.6,18,15.5,17
	c21.4-2.9,42.9-2.9,64.3,0c7.3,1,11.9,4.6,13.2,12.3c2.3,13.4,2.6,26.7,0.5,40.2c-1.4,8.8-6.2,12.5-14.4,13.5
	C68.6,84.2,58.1,85.1,47.4,85.5z"/>
<path class="st0" d="M62.4,49.9c-9.3,5.4-17.1,9.9-25.8,14.9c0-10.1,0-19.2,0-28.9C45.3,39,52.9,44.3,62.4,49.9z"/>
</svg>
